<svg width="139" height="31" viewBox="0 0 139 31" fill="none" xmlns="http://www.w3.org/2000/svg">
<path d="M40.1929 7.3764C40.1929 8.01986 40.0008 8.64888 39.6408 9.1839C39.2808 9.71892 38.7691 10.1359 38.1705 10.3822C37.5719 10.6284 36.9131 10.6928 36.2776 10.5673C35.6421 10.4418 35.0584 10.1319 34.6002 9.67691C34.142 9.22191 33.83 8.64221 33.7036 8.01111C33.5772 7.38001 33.642 6.72586 33.89 6.13137C34.138 5.53689 34.5579 5.02878 35.0966 4.67129C35.6354 4.3138 36.2688 4.12299 36.9168 4.12299C37.3471 4.12255 37.7733 4.20641 38.171 4.36975C38.5687 4.5331 38.93 4.77273 39.2343 5.07492C39.5386 5.37711 39.7799 5.73594 39.9444 6.13086C40.1089 6.52578 40.1934 6.94903 40.1929 7.3764Z" fill="#08539F"/>
<path d="M40.1929 26.1298C40.1929 26.5569 40.1082 26.9798 39.9435 27.3744C39.7788 27.7689 39.5374 28.1273 39.2332 28.4292C38.9289 28.731 38.5677 28.9703 38.1703 29.1335C37.7728 29.2966 37.3468 29.3804 36.9168 29.3799C36.0485 29.3799 35.2157 29.0376 34.6014 28.4282C33.9871 27.8188 33.6415 26.9921 33.6406 26.1298V14.9049C33.6415 14.0426 33.9871 13.2159 34.6014 12.6065C35.2157 11.9971 36.0485 11.6548 36.9168 11.6548C37.7851 11.6548 38.6179 11.9971 39.2322 12.6065C39.8465 13.2159 40.192 14.0426 40.1929 14.9049V26.1298Z" fill="#08539F"/>
<path d="M61.8806 27.006C61.8806 28.4012 60.8418 29.5353 59.55 29.5353H44.188C42.9062 29.5353 41.8574 28.4012 41.8574 27.006C41.8574 25.6074 42.8962 24.4733 44.188 24.4733H59.5699C60.8518 24.4733 61.9005 25.6074 61.9005 27.006H61.8806Z" fill="#08539F"/>
<path d="M46.5552 28.4475C45.6297 29.6411 43.9716 29.9221 42.8563 29.0691C41.7409 28.2161 41.5877 26.5563 42.5233 25.3594L56.9397 6.75148C57.8653 5.55459 59.5233 5.27686 60.6387 6.12989C61.7541 6.98292 61.9072 8.64269 60.9716 9.83958L46.5552 28.4475Z" fill="#08539F"/>
<path d="M61.8806 7.59459C61.8806 8.99316 60.8418 10.1239 59.55 10.1239H44.188C42.9062 10.1239 41.8574 8.98985 41.8574 7.59459C41.8574 6.19602 42.8962 5.06195 44.188 5.06195H59.5699C60.8518 5.06195 61.9005 6.19602 61.9005 7.59459H61.8806Z" fill="#08539F"/>
<path d="M73.5701 10.7455C68 10.7455 63.4819 14.9842 63.4819 20.2181C63.4819 25.452 67.9966 29.6907 73.5701 29.6907C79.1435 29.6907 83.6549 25.452 83.6549 20.2181C83.6549 14.9842 79.1469 10.7455 73.5701 10.7455ZM73.5701 24.9627C71.2728 24.9627 69.4116 22.8467 69.4116 20.2314C69.4116 17.6161 71.2728 15.5 73.5701 15.5C75.8674 15.5 77.7252 17.6161 77.7252 20.2314C77.7252 22.8467 75.8641 24.9495 73.5701 24.9495V24.9627Z" fill="#08539F"/>
<path d="M94.6888 10.7455C89.1187 10.7455 84.604 14.9842 84.604 20.2181C84.604 25.452 89.1353 29.6907 94.6888 29.6907C100.242 29.6907 104.784 25.452 104.784 20.2181C104.784 14.9842 100.259 10.7455 94.6888 10.7455ZM94.6888 24.9627C92.3915 24.9627 90.5337 22.8467 90.5337 20.2314C90.5337 17.6161 92.3948 15.5 94.6888 15.5C96.9828 15.5 98.8439 17.6161 98.8439 20.2314C98.8439 22.8467 96.9828 24.9495 94.6888 24.9495V24.9627Z" fill="#08539F"/>
<path d="M128.915 10.7455C123.345 10.7455 118.83 14.9842 118.83 20.2181C118.83 25.452 123.345 29.6907 128.915 29.6907C134.485 29.6907 139 25.452 139 20.2181C139 14.9842 134.485 10.7455 128.915 10.7455ZM128.915 24.9627C126.618 24.9627 124.76 22.8467 124.76 20.2314C124.76 17.6161 126.621 15.5 128.915 15.5C131.209 15.5 133.084 17.6028 133.084 20.2181C133.084 22.8334 131.209 24.9495 128.915 24.9495V24.9627Z" fill="#08539F"/>
<path d="M117.995 13.5691C117.995 13.8229 117.944 14.0743 117.846 14.3088C117.748 14.5432 117.605 14.7563 117.424 14.9356C117.243 15.1149 117.028 15.2571 116.792 15.3539C116.556 15.4508 116.303 15.5004 116.047 15.5H107.171C106.655 15.5 106.16 15.2965 105.796 14.9344C105.431 14.5723 105.226 14.0812 105.226 13.5691C105.226 13.0567 105.431 12.5652 105.796 12.2026C106.16 11.8399 106.655 11.6358 107.171 11.6349H116.047C116.564 11.6349 117.059 11.8387 117.424 12.2014C117.789 12.5641 117.995 13.0561 117.995 13.5691Z" fill="#08539F"/>
<path d="M108.399 23.1145C108.379 22.8941 108.366 22.6824 108.359 22.4797C108.343 22.0366 108.359 21.5936 108.359 21.1571C108.359 20.0903 108.359 19.0224 108.359 17.9533C108.359 16.7333 108.359 15.5166 108.359 14.2965C108.359 13.2848 108.359 12.2698 108.359 11.258C108.359 10.7753 108.359 10.2959 108.359 9.81317V9.78011C108.359 9.01283 108.666 8.27698 109.213 7.73443C109.759 7.19189 110.5 6.88708 111.273 6.88708C112.045 6.88708 112.786 7.19189 113.333 7.73443C113.879 8.27698 114.186 9.01283 114.186 9.78011V23.1145C114.186 23.1145 113.876 24.3312 115.791 24.5891C116.566 24.718 117.892 28.3583 114.126 29.4163C113.965 29.4718 113.797 29.5073 113.627 29.5221C113.23 29.5366 112.834 29.4977 112.448 29.4064C111.881 29.2857 111.341 29.0615 110.857 28.7451C110.212 28.2883 109.71 27.6603 109.408 26.9333C108.864 25.7236 108.523 24.4336 108.399 23.1145Z" fill="#08539F"/>
<path fill-rule="evenodd" clip-rule="evenodd" d="M20.3894 12.2565L3.07639 0.522397C2.63905 0.218665 2.12708 0.0381499 1.59479 0C0.868979 0 0.00332934 0.479415 0.00332934 2.75085V8.37159C0.00355596 8.39582 0.00974077 8.41963 0.0213458 8.44096C0.0329508 8.46228 0.0496247 8.48046 0.0699177 8.49392C0.126518 8.54682 6.62222 13.1525 8.62986 14.4453C9.13593 14.7759 9.3923 15.1065 9.37232 15.3975C9.35234 15.824 8.77968 16.1117 8.76303 16.1216L0.0765767 21.4977C0.0536989 21.5108 0.0346245 21.5295 0.0212066 21.5521C0.00778863 21.5747 0.00048327 21.6004 0 21.6266V26.8605C0 29.5055 0.968861 30.0544 1.77791 30.0544C2.23447 30.034 2.67763 29.8949 3.06307 29.651C3.19624 29.575 16.2509 21.9076 20.396 18.9419C21.841 17.9103 22.5635 16.7862 22.5435 15.6058C22.5036 13.665 20.4759 12.2995 20.3894 12.2499V12.2565Z" fill="#08539F"/>
<path fill-rule="evenodd" clip-rule="evenodd" d="M19.264 24.5064C18.6178 24.509 17.9868 24.7017 17.4509 25.0602C16.9149 25.4187 16.4979 25.9269 16.2526 26.5206C16.0072 27.1143 15.9446 27.7669 16.0725 28.3959C16.2004 29.0249 16.5132 29.6022 16.9713 30.0548C17.4294 30.5075 18.0123 30.8151 18.6464 30.939C19.2805 31.0628 19.9373 30.9973 20.5339 30.7506C21.1304 30.504 21.6401 30.0873 21.9983 29.5532C22.3566 29.0192 22.5475 28.3916 22.5468 27.7499C22.5433 26.889 22.1967 26.0646 21.5827 25.4568C20.9688 24.849 20.1375 24.5073 19.2706 24.5064H19.264Z" fill="#F7D92A"/>
</svg>
