<svg width="514" height="260" viewBox="0 0 514 260" fill="none" xmlns="http://www.w3.org/2000/svg">
<rect x="1.5" y="92.5" width="511" height="167" fill="white" stroke="#BFBCBE"/>
<path d="M7 0.5H512.5V46.5H0.5V7C0.5 3.41015 3.41015 0.5 7 0.5Z" fill="#DCD9DC" stroke="#DDD9DC"/>
<path d="M90.4127 46.2076H1V93H513V46.2076H393.117L374.635 13H105.898L90.4127 46.2076Z" fill="#F2F2F2" stroke="#BFBCBE"/>
<path d="M119 53.5H512.5V86.5H119C117.067 86.5 115.5 84.933 115.5 83V57C115.5 55.067 117.067 53.5 119 53.5Z" fill="white" stroke="#C4C4C4"/>
<circle cx="23" cy="25" r="9" fill="#FF4F45"/>
<circle cx="47" cy="25" r="9" fill="#F8B600"/>
<circle cx="72" cy="25" r="9" fill="#00D628"/>
<path d="M152.698 68.106C153.378 67.2703 154.264 66.8525 155.354 66.8525C157.252 66.8525 158.209 67.9233 158.226 70.0649V76H156.69V70.0566C156.685 69.4092 156.535 68.9305 156.242 68.6206C155.954 68.3107 155.503 68.1558 154.889 68.1558C154.391 68.1558 153.954 68.2886 153.578 68.5542C153.201 68.8198 152.908 69.1685 152.698 69.6001V76H151.162V63.25H152.698V68.106ZM162.759 64.8438V67.0186H164.436V68.2056H162.759V73.7754C162.759 74.1351 162.834 74.4062 162.983 74.5889C163.132 74.766 163.387 74.8545 163.747 74.8545C163.924 74.8545 164.167 74.8213 164.477 74.7549V76C164.073 76.1107 163.68 76.166 163.298 76.166C162.612 76.166 162.095 75.9585 161.746 75.5435C161.398 75.1284 161.223 74.5391 161.223 73.7754V68.2056H159.588V67.0186H161.223V64.8438H162.759ZM168.47 64.8438V67.0186H170.147V68.2056H168.47V73.7754C168.47 74.1351 168.545 74.4062 168.695 74.5889C168.844 74.766 169.099 74.8545 169.458 74.8545C169.635 74.8545 169.879 74.8213 170.189 74.7549V76C169.785 76.1107 169.392 76.166 169.01 76.166C168.324 76.166 167.806 75.9585 167.458 75.5435C167.109 75.1284 166.935 74.5391 166.935 73.7754V68.2056H165.3V67.0186H166.935V64.8438H168.47ZM179.685 71.6089C179.685 72.9757 179.373 74.077 178.747 74.9126C178.122 75.7482 177.275 76.166 176.207 76.166C175.117 76.166 174.259 75.8201 173.634 75.1284V79.4531H172.098V67.0186H173.501L173.576 68.0146C174.201 67.2399 175.07 66.8525 176.182 66.8525C177.262 66.8525 178.114 67.2593 178.739 68.0728C179.37 68.8862 179.685 70.0179 179.685 71.4678V71.6089ZM178.15 71.4346C178.15 70.4219 177.934 69.6222 177.502 69.0356C177.071 68.4491 176.478 68.1558 175.726 68.1558C174.796 68.1558 174.099 68.568 173.634 69.3926V73.6841C174.093 74.5031 174.796 74.9126 175.742 74.9126C176.478 74.9126 177.062 74.6221 177.494 74.041C177.931 73.4544 178.15 72.5856 178.15 71.4346ZM187.024 73.6177C187.024 73.2026 186.866 72.8817 186.551 72.6548C186.241 72.4224 185.696 72.2231 184.915 72.0571C184.141 71.8911 183.524 71.6919 183.064 71.4595C182.611 71.2271 182.273 70.9504 182.052 70.6294C181.836 70.3084 181.728 69.9266 181.728 69.4839C181.728 68.7479 182.038 68.1253 182.658 67.6162C183.283 67.1071 184.08 66.8525 185.048 66.8525C186.066 66.8525 186.891 67.1154 187.522 67.6411C188.158 68.1668 188.476 68.8392 188.476 69.6582H186.933C186.933 69.2376 186.753 68.8752 186.393 68.5708C186.039 68.2664 185.591 68.1143 185.048 68.1143C184.489 68.1143 184.052 68.236 183.737 68.4795C183.421 68.723 183.264 69.0412 183.264 69.4341C183.264 69.8049 183.41 70.0843 183.704 70.2725C183.997 70.4606 184.525 70.6405 185.289 70.812C186.058 70.9836 186.681 71.1883 187.157 71.4263C187.633 71.6642 187.984 71.952 188.211 72.2896C188.443 72.6216 188.559 73.0283 188.559 73.5098C188.559 74.3122 188.239 74.9569 187.597 75.4438C186.955 75.9253 186.122 76.166 185.098 76.166C184.379 76.166 183.742 76.0387 183.189 75.7842C182.635 75.5296 182.201 75.1755 181.886 74.7217C181.576 74.2624 181.421 73.7671 181.421 73.2358H182.956C182.984 73.7505 183.189 74.16 183.571 74.4644C183.958 74.7632 184.467 74.9126 185.098 74.9126C185.679 74.9126 186.144 74.7964 186.493 74.564C186.847 74.326 187.024 74.0106 187.024 73.6177ZM190.66 75.1948C190.66 74.9292 190.738 74.7078 190.893 74.5308C191.053 74.3537 191.291 74.2651 191.606 74.2651C191.922 74.2651 192.16 74.3537 192.32 74.5308C192.486 74.7078 192.569 74.9292 192.569 75.1948C192.569 75.4494 192.486 75.6624 192.32 75.834C192.16 76.0055 191.922 76.0913 191.606 76.0913C191.291 76.0913 191.053 76.0055 190.893 75.834C190.738 75.6624 190.66 75.4494 190.66 75.1948ZM190.668 67.8652C190.668 67.5996 190.746 67.3783 190.901 67.2012C191.061 67.0241 191.299 66.9355 191.615 66.9355C191.93 66.9355 192.168 67.0241 192.329 67.2012C192.495 67.3783 192.578 67.5996 192.578 67.8652C192.578 68.1198 192.495 68.3328 192.329 68.5044C192.168 68.6759 191.93 68.7617 191.615 68.7617C191.299 68.7617 191.061 68.6759 190.901 68.5044C190.746 68.3328 190.668 68.1198 190.668 67.8652Z" fill="#008540"/>
<path d="M195.284 77.0376H193.964L199.011 63.9141H200.323L195.284 77.0376ZM200.581 77.0376H199.261L204.308 63.9141H205.619L200.581 77.0376ZM209.098 76H207.562V67.0186H209.098V76ZM207.438 64.6362C207.438 64.3872 207.513 64.1769 207.662 64.0054C207.817 63.8338 208.044 63.748 208.343 63.748C208.641 63.748 208.868 63.8338 209.023 64.0054C209.178 64.1769 209.256 64.3872 209.256 64.6362C209.256 64.8853 209.178 65.0928 209.023 65.2588C208.868 65.4248 208.641 65.5078 208.343 65.5078C208.044 65.5078 207.817 65.4248 207.662 65.2588C207.513 65.0928 207.438 64.8853 207.438 64.6362ZM213.158 74.7466H218.412V76H211.282V74.8711L216.237 68.2886H211.356V67.0186H218.163V68.106L213.158 74.7466ZM219.757 71.4263C219.757 70.5464 219.929 69.755 220.272 69.0522C220.621 68.3494 221.102 67.8071 221.716 67.4253C222.336 67.0435 223.042 66.8525 223.833 66.8525C225.056 66.8525 226.044 67.2759 226.796 68.1226C227.555 68.9692 227.934 70.0954 227.934 71.501V71.6089C227.934 72.4832 227.765 73.269 227.427 73.9663C227.095 74.658 226.617 75.1976 225.991 75.585C225.371 75.9723 224.658 76.166 223.85 76.166C222.632 76.166 221.644 75.7427 220.886 74.896C220.134 74.0493 219.757 72.9287 219.757 71.5342V71.4263ZM221.301 71.6089C221.301 72.605 221.531 73.4046 221.99 74.0078C222.455 74.611 223.075 74.9126 223.85 74.9126C224.63 74.9126 225.25 74.6082 225.709 73.9995C226.168 73.3853 226.398 72.5275 226.398 71.4263C226.398 70.4412 226.163 69.6444 225.692 69.0356C225.228 68.4214 224.608 68.1143 223.833 68.1143C223.075 68.1143 222.463 68.4159 221.999 69.019C221.534 69.6222 221.301 70.4855 221.301 71.6089ZM229.603 71.4263C229.603 70.5464 229.774 69.755 230.117 69.0522C230.466 68.3494 230.947 67.8071 231.562 67.4253C232.181 67.0435 232.887 66.8525 233.678 66.8525C234.901 66.8525 235.889 67.2759 236.642 68.1226C237.4 68.9692 237.779 70.0954 237.779 71.501V71.6089C237.779 72.4832 237.61 73.269 237.273 73.9663C236.941 74.658 236.462 75.1976 235.837 75.585C235.217 75.9723 234.503 76.166 233.695 76.166C232.477 76.166 231.49 75.7427 230.732 74.896C229.979 74.0493 229.603 72.9287 229.603 71.5342V71.4263ZM231.147 71.6089C231.147 72.605 231.376 73.4046 231.836 74.0078C232.3 74.611 232.92 74.9126 233.695 74.9126C234.475 74.9126 235.095 74.6082 235.554 73.9995C236.014 73.3853 236.243 72.5275 236.243 71.4263C236.243 70.4412 236.008 69.6444 235.538 69.0356C235.073 68.4214 234.453 68.1143 233.678 68.1143C232.92 68.1143 232.309 68.4159 231.844 69.019C231.379 69.6222 231.147 70.4855 231.147 71.6089ZM241.938 64.8438V67.0186H243.615V68.2056H241.938V73.7754C241.938 74.1351 242.013 74.4062 242.162 74.5889C242.312 74.766 242.566 74.8545 242.926 74.8545C243.103 74.8545 243.347 74.8213 243.656 74.7549V76C243.252 76.1107 242.86 76.166 242.478 76.166C241.792 76.166 241.274 75.9585 240.925 75.5435C240.577 75.1284 240.403 74.5391 240.403 73.7754V68.2056H238.767V67.0186H240.403V64.8438H241.938ZM244.993 71.4263C244.993 70.5464 245.165 69.755 245.508 69.0522C245.857 68.3494 246.338 67.8071 246.952 67.4253C247.572 67.0435 248.278 66.8525 249.069 66.8525C250.292 66.8525 251.28 67.2759 252.033 68.1226C252.791 68.9692 253.17 70.0954 253.17 71.501V71.6089C253.17 72.4832 253.001 73.269 252.663 73.9663C252.331 74.658 251.853 75.1976 251.227 75.585C250.608 75.9723 249.894 76.166 249.086 76.166C247.868 76.166 246.88 75.7427 246.122 74.896C245.37 74.0493 244.993 72.9287 244.993 71.5342V71.4263ZM246.537 71.6089C246.537 72.605 246.767 73.4046 247.226 74.0078C247.691 74.611 248.311 74.9126 249.086 74.9126C249.866 74.9126 250.486 74.6082 250.945 73.9995C251.404 73.3853 251.634 72.5275 251.634 71.4263C251.634 70.4412 251.399 69.6444 250.929 69.0356C250.464 68.4214 249.844 68.1143 249.069 68.1143C248.311 68.1143 247.7 68.4159 247.235 69.019C246.77 69.6222 246.537 70.4855 246.537 71.6089ZM255.279 75.1948C255.279 74.9292 255.356 74.7078 255.511 74.5308C255.672 74.3537 255.91 74.2651 256.225 74.2651C256.54 74.2651 256.778 74.3537 256.939 74.5308C257.105 74.7078 257.188 74.9292 257.188 75.1948C257.188 75.4494 257.105 75.6624 256.939 75.834C256.778 76.0055 256.54 76.0913 256.225 76.0913C255.91 76.0913 255.672 76.0055 255.511 75.834C255.356 75.6624 255.279 75.4494 255.279 75.1948ZM263.48 74.9126C264.028 74.9126 264.507 74.7466 264.917 74.4146C265.326 74.0825 265.553 73.6675 265.597 73.1694H267.05C267.022 73.6841 266.845 74.1738 266.519 74.6387C266.192 75.1035 265.755 75.4743 265.207 75.751C264.665 76.0277 264.089 76.166 263.48 76.166C262.257 76.166 261.284 75.7593 260.559 74.9458C259.839 74.1268 259.479 73.009 259.479 71.5923V71.335C259.479 70.4606 259.64 69.6831 259.961 69.0024C260.282 68.3218 260.741 67.7933 261.339 67.417C261.942 67.0407 262.653 66.8525 263.472 66.8525C264.479 66.8525 265.315 67.1541 265.979 67.7573C266.649 68.3605 267.006 69.1436 267.05 70.1064H265.597C265.553 69.5254 265.332 69.0495 264.933 68.6787C264.54 68.3024 264.053 68.1143 263.472 68.1143C262.692 68.1143 262.086 68.3965 261.654 68.9609C261.228 69.5199 261.015 70.3306 261.015 71.3931V71.6836C261.015 72.7184 261.228 73.5153 261.654 74.0742C262.08 74.6331 262.689 74.9126 263.48 74.9126ZM268.52 71.4263C268.52 70.5464 268.691 69.755 269.034 69.0522C269.383 68.3494 269.864 67.8071 270.479 67.4253C271.098 67.0435 271.804 66.8525 272.595 66.8525C273.818 66.8525 274.806 67.2759 275.559 68.1226C276.317 68.9692 276.696 70.0954 276.696 71.501V71.6089C276.696 72.4832 276.527 73.269 276.19 73.9663C275.858 74.658 275.379 75.1976 274.754 75.585C274.134 75.9723 273.42 76.166 272.612 76.166C271.394 76.166 270.407 75.7427 269.649 74.896C268.896 74.0493 268.52 72.9287 268.52 71.5342V71.4263ZM270.064 71.6089C270.064 72.605 270.293 73.4046 270.753 74.0078C271.217 74.611 271.837 74.9126 272.612 74.9126C273.392 74.9126 274.012 74.6082 274.471 73.9995C274.931 73.3853 275.16 72.5275 275.16 71.4263C275.16 70.4412 274.925 69.6444 274.455 69.0356C273.99 68.4214 273.37 68.1143 272.595 68.1143C271.837 68.1143 271.226 68.4159 270.761 69.019C270.296 69.6222 270.064 70.4855 270.064 71.6089ZM280.216 67.0186L280.258 68.0146C280.916 67.2399 281.804 66.8525 282.922 66.8525C284.178 66.8525 285.033 67.334 285.487 68.2969C285.786 67.8652 286.173 67.5166 286.649 67.251C287.131 66.9854 287.698 66.8525 288.351 66.8525C290.321 66.8525 291.322 67.8957 291.356 69.9819V76H289.82V70.0732C289.82 69.4313 289.673 68.9526 289.38 68.6372C289.087 68.3162 288.594 68.1558 287.903 68.1558C287.333 68.1558 286.859 68.3273 286.483 68.6704C286.107 69.008 285.888 69.4645 285.827 70.04V76H284.283V70.1147C284.283 68.8088 283.644 68.1558 282.366 68.1558C281.359 68.1558 280.67 68.5846 280.299 69.4424V76H278.763V67.0186H280.216Z" fill="black" fill-opacity="0.54"/>
<path d="M136.5 68H135.75V66.5C135.75 64.43 134.07 62.75 132 62.75C129.93 62.75 128.25 64.43 128.25 66.5V68H127.5C126.675 68 126 68.675 126 69.5V77C126 77.825 126.675 78.5 127.5 78.5H136.5C137.325 78.5 138 77.825 138 77V69.5C138 68.675 137.325 68 136.5 68ZM132 74.75C131.175 74.75 130.5 74.075 130.5 73.25C130.5 72.425 131.175 71.75 132 71.75C132.825 71.75 133.5 72.425 133.5 73.25C133.5 74.075 132.825 74.75 132 74.75ZM134.325 68H129.675V66.5C129.675 65.2175 130.717 64.175 132 64.175C133.282 64.175 134.325 65.2175 134.325 66.5V68Z" fill="#008540"/>
<path d="M31 69H18.83L24.42 63.41L23 62L15 70L23 78L24.41 76.59L18.83 71H31V69Z" fill="black" fill-opacity="0.5"/>
<path d="M50 71L62.17 71L56.58 76.59L58 78L66 70L58 62L56.59 63.41L62.17 69L50 69L50 71Z" fill="black" fill-opacity="0.12"/>
<g filter="url(#filter0_d)">
<path fill-rule="evenodd" clip-rule="evenodd" d="M141.548 89H491C493.209 89 495 90.7909 495 93V236C495 238.209 493.209 240 491 240H105C102.791 240 101 238.209 101 236V93C101 90.7909 102.791 89 105 89H123.929L132.5 79L141.548 89Z" fill="white"/>
<path d="M141.548 89L141.177 89.3355L141.326 89.5H141.548V89ZM123.929 89V89.5H124.159L124.308 89.3254L123.929 89ZM132.5 79L132.871 78.6645L132.49 78.2435L132.12 78.6746L132.5 79ZM141.548 89.5H491V88.5H141.548V89.5ZM491 89.5C492.933 89.5 494.5 91.067 494.5 93H495.5C495.5 90.5147 493.485 88.5 491 88.5V89.5ZM494.5 93V236H495.5V93H494.5ZM494.5 236C494.5 237.933 492.933 239.5 491 239.5V240.5C493.485 240.5 495.5 238.485 495.5 236H494.5ZM491 239.5H105V240.5H491V239.5ZM105 239.5C103.067 239.5 101.5 237.933 101.5 236H100.5C100.5 238.485 102.515 240.5 105 240.5V239.5ZM101.5 236V93H100.5V236H101.5ZM101.5 93C101.5 91.067 103.067 89.5 105 89.5V88.5C102.515 88.5 100.5 90.5147 100.5 93H101.5ZM105 89.5H123.929V88.5H105V89.5ZM124.308 89.3254L132.88 79.3254L132.12 78.6746L123.549 88.6746L124.308 89.3254ZM132.129 79.3355L141.177 89.3355L141.918 88.6645L132.871 78.6645L132.129 79.3355Z" fill="#C4C4C4"/>
</g>
<rect x="284.5" y="185.5" width="87" height="32" rx="3.5" fill="#F3F3F3" stroke="#CFD0D0"/>
<rect x="386.5" y="185.5" width="87" height="32" rx="3.5" fill="#F3F3F3" stroke="#CFD0D0"/>
<path d="M119.331 121H118.066V113.604H119.331V121ZM117.964 111.642C117.964 111.437 118.025 111.263 118.148 111.122C118.276 110.981 118.463 110.91 118.709 110.91C118.955 110.91 119.142 110.981 119.27 111.122C119.397 111.263 119.461 111.437 119.461 111.642C119.461 111.847 119.397 112.018 119.27 112.154C119.142 112.291 118.955 112.359 118.709 112.359C118.463 112.359 118.276 112.291 118.148 112.154C118.025 112.018 117.964 111.847 117.964 111.642ZM122.701 119.968H127.028V121H121.156V120.07L125.237 114.649H121.217V113.604H126.823V114.499L122.701 119.968ZM128.162 117.233C128.162 116.509 128.304 115.857 128.586 115.278C128.873 114.7 129.27 114.253 129.776 113.938C130.286 113.624 130.867 113.467 131.519 113.467C132.526 113.467 133.339 113.815 133.959 114.513C134.584 115.21 134.896 116.137 134.896 117.295V117.384C134.896 118.104 134.757 118.751 134.479 119.325C134.205 119.895 133.811 120.339 133.296 120.658C132.786 120.977 132.198 121.137 131.532 121.137C130.53 121.137 129.716 120.788 129.092 120.091C128.472 119.394 128.162 118.471 128.162 117.322V117.233ZM129.434 117.384C129.434 118.204 129.623 118.863 130.001 119.359C130.384 119.856 130.894 120.104 131.532 120.104C132.175 120.104 132.685 119.854 133.064 119.353C133.442 118.847 133.631 118.14 133.631 117.233C133.631 116.422 133.437 115.766 133.05 115.265C132.667 114.759 132.157 114.506 131.519 114.506C130.894 114.506 130.391 114.754 130.008 115.251C129.625 115.748 129.434 116.459 129.434 117.384ZM136.297 117.233C136.297 116.509 136.438 115.857 136.721 115.278C137.008 114.7 137.404 114.253 137.91 113.938C138.42 113.624 139.001 113.467 139.653 113.467C140.66 113.467 141.474 113.815 142.094 114.513C142.718 115.21 143.03 116.137 143.03 117.295V117.384C143.03 118.104 142.891 118.751 142.613 119.325C142.34 119.895 141.945 120.339 141.43 120.658C140.92 120.977 140.332 121.137 139.667 121.137C138.664 121.137 137.851 120.788 137.226 120.091C136.607 119.394 136.297 118.471 136.297 117.322V117.233ZM137.568 117.384C137.568 118.204 137.757 118.863 138.136 119.359C138.518 119.856 139.029 120.104 139.667 120.104C140.309 120.104 140.82 119.854 141.198 119.353C141.576 118.847 141.765 118.14 141.765 117.233C141.765 116.422 141.572 115.766 141.184 115.265C140.802 114.759 140.291 114.506 139.653 114.506C139.029 114.506 138.525 114.754 138.142 115.251C137.76 115.748 137.568 116.459 137.568 117.384ZM146.482 111.812V113.604H147.863V114.581H146.482V119.168C146.482 119.464 146.543 119.688 146.666 119.838C146.789 119.984 146.999 120.057 147.295 120.057C147.441 120.057 147.642 120.029 147.897 119.975V121C147.564 121.091 147.241 121.137 146.926 121.137C146.361 121.137 145.935 120.966 145.648 120.624C145.361 120.282 145.217 119.797 145.217 119.168V114.581H143.871V113.604H145.217V111.812H146.482ZM149.024 117.233C149.024 116.509 149.166 115.857 149.448 115.278C149.735 114.7 150.132 114.253 150.638 113.938C151.148 113.624 151.729 113.467 152.381 113.467C153.388 113.467 154.201 113.815 154.821 114.513C155.446 115.21 155.758 116.137 155.758 117.295V117.384C155.758 118.104 155.619 118.751 155.341 119.325C155.067 119.895 154.673 120.339 154.158 120.658C153.648 120.977 153.06 121.137 152.395 121.137C151.392 121.137 150.578 120.788 149.954 120.091C149.334 119.394 149.024 118.471 149.024 117.322V117.233ZM150.296 117.384C150.296 118.204 150.485 118.863 150.863 119.359C151.246 119.856 151.757 120.104 152.395 120.104C153.037 120.104 153.548 119.854 153.926 119.353C154.304 118.847 154.493 118.14 154.493 117.233C154.493 116.422 154.299 115.766 153.912 115.265C153.529 114.759 153.019 114.506 152.381 114.506C151.757 114.506 151.253 114.754 150.87 115.251C150.487 115.748 150.296 116.459 150.296 117.384ZM157.521 120.337C157.521 120.118 157.585 119.936 157.713 119.79C157.845 119.644 158.041 119.571 158.3 119.571C158.56 119.571 158.756 119.644 158.888 119.79C159.025 119.936 159.093 120.118 159.093 120.337C159.093 120.547 159.025 120.722 158.888 120.863C158.756 121.005 158.56 121.075 158.3 121.075C158.041 121.075 157.845 121.005 157.713 120.863C157.585 120.722 157.521 120.547 157.521 120.337ZM164.302 120.104C164.753 120.104 165.147 119.968 165.485 119.694C165.822 119.421 166.009 119.079 166.045 118.669H167.241C167.219 119.093 167.073 119.496 166.804 119.879C166.535 120.262 166.175 120.567 165.724 120.795C165.277 121.023 164.803 121.137 164.302 121.137C163.295 121.137 162.493 120.802 161.896 120.132C161.303 119.457 161.007 118.537 161.007 117.37V117.158C161.007 116.438 161.139 115.798 161.404 115.237C161.668 114.677 162.046 114.242 162.538 113.932C163.035 113.622 163.621 113.467 164.295 113.467C165.125 113.467 165.813 113.715 166.36 114.212C166.911 114.709 167.205 115.354 167.241 116.146H166.045C166.009 115.668 165.826 115.276 165.498 114.971C165.175 114.661 164.774 114.506 164.295 114.506C163.653 114.506 163.154 114.738 162.798 115.203C162.447 115.663 162.272 116.331 162.272 117.206V117.445C162.272 118.298 162.447 118.954 162.798 119.414C163.149 119.874 163.65 120.104 164.302 120.104ZM168.478 117.233C168.478 116.509 168.62 115.857 168.902 115.278C169.189 114.7 169.586 114.253 170.092 113.938C170.602 113.624 171.183 113.467 171.835 113.467C172.842 113.467 173.655 113.815 174.275 114.513C174.9 115.21 175.212 116.137 175.212 117.295V117.384C175.212 118.104 175.073 118.751 174.795 119.325C174.521 119.895 174.127 120.339 173.612 120.658C173.102 120.977 172.514 121.137 171.848 121.137C170.846 121.137 170.032 120.788 169.408 120.091C168.788 119.394 168.478 118.471 168.478 117.322V117.233ZM169.75 117.384C169.75 118.204 169.939 118.863 170.317 119.359C170.7 119.856 171.21 120.104 171.848 120.104C172.491 120.104 173.001 119.854 173.38 119.353C173.758 118.847 173.947 118.14 173.947 117.233C173.947 116.422 173.753 115.766 173.366 115.265C172.983 114.759 172.473 114.506 171.835 114.506C171.21 114.506 170.707 114.754 170.324 115.251C169.941 115.748 169.75 116.459 169.75 117.384ZM178.137 113.604L178.171 114.424C178.714 113.786 179.445 113.467 180.366 113.467C181.4 113.467 182.104 113.863 182.478 114.656C182.724 114.301 183.043 114.014 183.435 113.795C183.831 113.576 184.299 113.467 184.836 113.467C186.459 113.467 187.284 114.326 187.311 116.044V121H186.046V116.119C186.046 115.59 185.926 115.196 185.684 114.937C185.442 114.672 185.037 114.54 184.467 114.54C183.998 114.54 183.608 114.681 183.298 114.964C182.988 115.242 182.808 115.618 182.758 116.092V121H181.487V116.153C181.487 115.078 180.96 114.54 179.908 114.54C179.078 114.54 178.511 114.893 178.205 115.6V121H176.941V113.604H178.137ZM199.546 119.257L200.968 113.604H202.233L200.08 121H199.054L197.256 115.395L195.506 121H194.481L192.335 113.604H193.592L195.048 119.141L196.771 113.604H197.79L199.546 119.257ZM208.241 121C208.168 120.854 208.109 120.594 208.064 120.221C207.476 120.831 206.774 121.137 205.958 121.137C205.229 121.137 204.63 120.932 204.16 120.521C203.696 120.107 203.463 119.583 203.463 118.949C203.463 118.179 203.755 117.582 204.338 117.158C204.926 116.73 205.751 116.516 206.813 116.516H208.043V115.935C208.043 115.493 207.911 115.142 207.647 114.882C207.382 114.618 206.993 114.485 206.478 114.485C206.027 114.485 205.648 114.599 205.343 114.827C205.038 115.055 204.885 115.331 204.885 115.654H203.613C203.613 115.285 203.743 114.93 204.003 114.588C204.267 114.242 204.623 113.968 205.07 113.768C205.521 113.567 206.015 113.467 206.553 113.467C207.405 113.467 208.073 113.681 208.556 114.109C209.039 114.533 209.29 115.119 209.308 115.866V119.271C209.308 119.95 209.394 120.49 209.568 120.891V121H208.241ZM206.143 120.036C206.539 120.036 206.915 119.934 207.271 119.729C207.626 119.523 207.884 119.257 208.043 118.929V117.411H207.052C205.502 117.411 204.728 117.865 204.728 118.771C204.728 119.168 204.86 119.478 205.124 119.701C205.389 119.924 205.728 120.036 206.143 120.036ZM212.637 113.604L212.678 114.533C213.243 113.822 213.981 113.467 214.892 113.467C216.456 113.467 217.244 114.349 217.258 116.112V121H215.993V116.105C215.988 115.572 215.865 115.178 215.624 114.923C215.387 114.668 215.015 114.54 214.51 114.54C214.099 114.54 213.739 114.649 213.429 114.868C213.12 115.087 212.878 115.374 212.705 115.729V121H211.44V113.604H212.637ZM221.031 111.812V113.604H222.412V114.581H221.031V119.168C221.031 119.464 221.092 119.688 221.215 119.838C221.338 119.984 221.548 120.057 221.844 120.057C221.99 120.057 222.19 120.029 222.446 119.975V121C222.113 121.091 221.789 121.137 221.475 121.137C220.91 121.137 220.484 120.966 220.197 120.624C219.91 120.282 219.766 119.797 219.766 119.168V114.581H218.419V113.604H219.766V111.812H221.031ZM228.352 119.038C228.352 118.696 228.222 118.432 227.962 118.245C227.707 118.054 227.258 117.89 226.615 117.753C225.977 117.616 225.469 117.452 225.091 117.261C224.717 117.069 224.439 116.841 224.257 116.577C224.079 116.313 223.99 115.998 223.99 115.634C223.99 115.028 224.245 114.515 224.756 114.096C225.271 113.676 225.927 113.467 226.725 113.467C227.563 113.467 228.242 113.683 228.762 114.116C229.286 114.549 229.548 115.103 229.548 115.777H228.276C228.276 115.431 228.128 115.132 227.832 114.882C227.54 114.631 227.171 114.506 226.725 114.506C226.264 114.506 225.904 114.606 225.645 114.807C225.385 115.007 225.255 115.269 225.255 115.593C225.255 115.898 225.376 116.128 225.617 116.283C225.859 116.438 226.294 116.586 226.923 116.728C227.556 116.869 228.069 117.037 228.461 117.233C228.853 117.429 229.142 117.666 229.329 117.944C229.521 118.218 229.616 118.553 229.616 118.949C229.616 119.61 229.352 120.141 228.823 120.542C228.295 120.938 227.609 121.137 226.766 121.137C226.173 121.137 225.649 121.032 225.193 120.822C224.738 120.613 224.38 120.321 224.12 119.947C223.865 119.569 223.737 119.161 223.737 118.724H225.002C225.025 119.147 225.193 119.485 225.508 119.735C225.827 119.981 226.246 120.104 226.766 120.104C227.244 120.104 227.627 120.009 227.914 119.817C228.206 119.621 228.352 119.362 228.352 119.038ZM236.752 111.812V113.604H238.133V114.581H236.752V119.168C236.752 119.464 236.814 119.688 236.937 119.838C237.06 119.984 237.269 120.057 237.566 120.057C237.711 120.057 237.912 120.029 238.167 119.975V121C237.835 121.091 237.511 121.137 237.196 121.137C236.631 121.137 236.205 120.966 235.918 120.624C235.631 120.282 235.488 119.797 235.488 119.168V114.581H234.141V113.604H235.488V111.812H236.752ZM239.295 117.233C239.295 116.509 239.436 115.857 239.719 115.278C240.006 114.7 240.402 114.253 240.908 113.938C241.418 113.624 241.999 113.467 242.651 113.467C243.658 113.467 244.472 113.815 245.092 114.513C245.716 115.21 246.028 116.137 246.028 117.295V117.384C246.028 118.104 245.889 118.751 245.611 119.325C245.338 119.895 244.943 120.339 244.429 120.658C243.918 120.977 243.33 121.137 242.665 121.137C241.662 121.137 240.849 120.788 240.224 120.091C239.605 119.394 239.295 118.471 239.295 117.322V117.233ZM240.566 117.384C240.566 118.204 240.755 118.863 241.134 119.359C241.516 119.856 242.027 120.104 242.665 120.104C243.307 120.104 243.818 119.854 244.196 119.353C244.574 118.847 244.763 118.14 244.763 117.233C244.763 116.422 244.57 115.766 244.182 115.265C243.8 114.759 243.289 114.506 242.651 114.506C242.027 114.506 241.523 114.754 241.14 115.251C240.758 115.748 240.566 116.459 240.566 117.384ZM247.723 120.337C247.723 120.118 247.787 119.936 247.914 119.79C248.047 119.644 248.243 119.571 248.502 119.571C248.762 119.571 248.958 119.644 249.09 119.79C249.227 119.936 249.295 120.118 249.295 120.337C249.295 120.547 249.227 120.722 249.09 120.863C248.958 121.005 248.762 121.075 248.502 121.075C248.243 121.075 248.047 121.005 247.914 120.863C247.787 120.722 247.723 120.547 247.723 120.337ZM247.73 114.301C247.73 114.082 247.794 113.9 247.921 113.754C248.053 113.608 248.249 113.535 248.509 113.535C248.769 113.535 248.965 113.608 249.097 113.754C249.234 113.9 249.302 114.082 249.302 114.301C249.302 114.51 249.234 114.686 249.097 114.827C248.965 114.968 248.769 115.039 248.509 115.039C248.249 115.039 248.053 114.968 247.921 114.827C247.794 114.686 247.73 114.51 247.73 114.301Z" fill="black" fill-opacity="0.54"/>
<path d="M153.088 155.563C151.962 155.24 151.142 154.843 150.627 154.374C150.117 153.9 149.861 153.317 149.861 152.624C149.861 151.84 150.174 151.193 150.798 150.683C151.427 150.168 152.243 149.91 153.245 149.91C153.929 149.91 154.537 150.042 155.07 150.307C155.608 150.571 156.023 150.936 156.314 151.4C156.611 151.865 156.759 152.373 156.759 152.925H155.439C155.439 152.323 155.248 151.852 154.865 151.51C154.482 151.163 153.942 150.99 153.245 150.99C152.598 150.99 152.092 151.134 151.728 151.421C151.368 151.703 151.188 152.098 151.188 152.604C151.188 153.009 151.358 153.353 151.7 153.636C152.047 153.914 152.632 154.169 153.457 154.401C154.286 154.634 154.934 154.891 155.398 155.174C155.868 155.452 156.214 155.778 156.438 156.151C156.665 156.525 156.779 156.965 156.779 157.471C156.779 158.277 156.465 158.924 155.836 159.412C155.207 159.895 154.366 160.137 153.313 160.137C152.63 160.137 151.992 160.007 151.399 159.747C150.807 159.483 150.349 159.123 150.025 158.667C149.706 158.211 149.547 157.694 149.547 157.115H150.866C150.866 157.717 151.087 158.193 151.529 158.544C151.976 158.89 152.571 159.063 153.313 159.063C154.006 159.063 154.537 158.922 154.906 158.64C155.275 158.357 155.46 157.972 155.46 157.484C155.46 156.997 155.289 156.621 154.947 156.356C154.605 156.088 153.986 155.823 153.088 155.563ZM159.684 153.499C160.245 152.811 160.974 152.467 161.872 152.467C163.435 152.467 164.223 153.349 164.237 155.112V160H162.972V155.105C162.968 154.572 162.845 154.178 162.603 153.923C162.366 153.668 161.995 153.54 161.489 153.54C161.079 153.54 160.719 153.649 160.409 153.868C160.099 154.087 159.857 154.374 159.684 154.729V160H158.42V149.5H159.684V153.499ZM165.946 156.233C165.946 155.509 166.087 154.857 166.369 154.278C166.656 153.7 167.053 153.253 167.559 152.938C168.069 152.624 168.65 152.467 169.302 152.467C170.309 152.467 171.123 152.815 171.742 153.513C172.367 154.21 172.679 155.137 172.679 156.295V156.384C172.679 157.104 172.54 157.751 172.262 158.325C171.988 158.895 171.594 159.339 171.079 159.658C170.569 159.977 169.981 160.137 169.316 160.137C168.313 160.137 167.5 159.788 166.875 159.091C166.255 158.394 165.946 157.471 165.946 156.322V156.233ZM167.217 156.384C167.217 157.204 167.406 157.863 167.784 158.359C168.167 158.856 168.678 159.104 169.316 159.104C169.958 159.104 170.469 158.854 170.847 158.353C171.225 157.847 171.414 157.14 171.414 156.233C171.414 155.422 171.221 154.766 170.833 154.265C170.45 153.759 169.94 153.506 169.302 153.506C168.678 153.506 168.174 153.754 167.791 154.251C167.408 154.748 167.217 155.459 167.217 156.384ZM180.964 158.257L182.386 152.604H183.65L181.497 160H180.471L178.674 154.395L176.924 160H175.898L173.752 152.604H175.01L176.466 158.141L178.188 152.604H179.207L180.964 158.257ZM189.911 152.604L189.952 153.533C190.517 152.822 191.256 152.467 192.167 152.467C193.73 152.467 194.519 153.349 194.532 155.112V160H193.268V155.105C193.263 154.572 193.14 154.178 192.898 153.923C192.661 153.668 192.29 153.54 191.784 153.54C191.374 153.54 191.014 153.649 190.704 153.868C190.394 154.087 190.153 154.374 189.979 154.729V160H188.715V152.604H189.911ZM196.254 156.233C196.254 155.509 196.396 154.857 196.678 154.278C196.965 153.7 197.362 153.253 197.868 152.938C198.378 152.624 198.959 152.467 199.611 152.467C200.618 152.467 201.432 152.815 202.051 153.513C202.676 154.21 202.988 155.137 202.988 156.295V156.384C202.988 157.104 202.849 157.751 202.571 158.325C202.297 158.895 201.903 159.339 201.388 159.658C200.878 159.977 200.29 160.137 199.625 160.137C198.622 160.137 197.809 159.788 197.184 159.091C196.564 158.394 196.254 157.471 196.254 156.322V156.233ZM197.526 156.384C197.526 157.204 197.715 157.863 198.093 158.359C198.476 158.856 198.987 159.104 199.625 159.104C200.267 159.104 200.778 158.854 201.156 158.353C201.534 157.847 201.723 157.14 201.723 156.233C201.723 155.422 201.53 154.766 201.142 154.265C200.759 153.759 200.249 153.506 199.611 153.506C198.987 153.506 198.483 153.754 198.1 154.251C197.717 154.748 197.526 155.459 197.526 156.384ZM206.44 150.812V152.604H207.821V153.581H206.44V158.168C206.44 158.464 206.501 158.688 206.624 158.838C206.747 158.984 206.957 159.057 207.253 159.057C207.399 159.057 207.599 159.029 207.855 158.975V160C207.522 160.091 207.198 160.137 206.884 160.137C206.319 160.137 205.893 159.966 205.606 159.624C205.319 159.282 205.175 158.797 205.175 158.168V153.581H203.828V152.604H205.175V150.812H206.44ZM210.828 160H209.563V152.604H210.828V160ZM209.461 150.642C209.461 150.437 209.522 150.263 209.645 150.122C209.773 149.981 209.96 149.91 210.206 149.91C210.452 149.91 210.639 149.981 210.766 150.122C210.894 150.263 210.958 150.437 210.958 150.642C210.958 150.847 210.894 151.018 210.766 151.154C210.639 151.291 210.452 151.359 210.206 151.359C209.96 151.359 209.773 151.291 209.645 151.154C209.522 151.018 209.461 150.847 209.461 150.642ZM213.432 160V153.581H212.263V152.604H213.432V151.975C213.432 151.15 213.667 150.507 214.136 150.047C214.61 149.587 215.278 149.356 216.139 149.356C216.649 149.356 217.294 149.495 218.074 149.773L217.862 150.84C217.292 150.612 216.75 150.498 216.235 150.498C215.692 150.498 215.301 150.621 215.059 150.867C214.822 151.109 214.704 151.473 214.704 151.961V152.604H216.214V153.581H214.704V160H213.432ZM218.703 160H217.431V152.604H218.703V160ZM223.877 159.104C224.328 159.104 224.722 158.968 225.06 158.694C225.397 158.421 225.584 158.079 225.62 157.669H226.816C226.794 158.093 226.648 158.496 226.379 158.879C226.11 159.262 225.75 159.567 225.299 159.795C224.852 160.023 224.378 160.137 223.877 160.137C222.87 160.137 222.068 159.802 221.471 159.132C220.878 158.457 220.582 157.537 220.582 156.37V156.158C220.582 155.438 220.714 154.798 220.979 154.237C221.243 153.677 221.621 153.242 222.113 152.932C222.61 152.622 223.196 152.467 223.87 152.467C224.7 152.467 225.388 152.715 225.935 153.212C226.486 153.709 226.78 154.354 226.816 155.146H225.62C225.584 154.668 225.401 154.276 225.073 153.971C224.75 153.661 224.349 153.506 223.87 153.506C223.228 153.506 222.729 153.738 222.373 154.203C222.022 154.663 221.847 155.331 221.847 156.206V156.445C221.847 157.298 222.022 157.954 222.373 158.414C222.724 158.874 223.225 159.104 223.877 159.104ZM232.955 160C232.882 159.854 232.823 159.594 232.777 159.221C232.189 159.831 231.487 160.137 230.671 160.137C229.942 160.137 229.343 159.932 228.874 159.521C228.409 159.107 228.176 158.583 228.176 157.949C228.176 157.179 228.468 156.582 229.051 156.158C229.639 155.73 230.464 155.516 231.526 155.516H232.756V154.935C232.756 154.493 232.624 154.142 232.36 153.882C232.096 153.618 231.706 153.485 231.191 153.485C230.74 153.485 230.362 153.599 230.056 153.827C229.751 154.055 229.598 154.331 229.598 154.654H228.327C228.327 154.285 228.457 153.93 228.716 153.588C228.981 153.242 229.336 152.968 229.783 152.768C230.234 152.567 230.728 152.467 231.266 152.467C232.118 152.467 232.786 152.681 233.269 153.109C233.752 153.533 234.003 154.119 234.021 154.866V158.271C234.021 158.95 234.108 159.49 234.281 159.891V160H232.955ZM230.856 159.036C231.253 159.036 231.629 158.934 231.984 158.729C232.339 158.523 232.597 158.257 232.756 157.929V156.411H231.765C230.216 156.411 229.441 156.865 229.441 157.771C229.441 158.168 229.573 158.478 229.838 158.701C230.102 158.924 230.441 159.036 230.856 159.036ZM237.869 150.812V152.604H239.25V153.581H237.869V158.168C237.869 158.464 237.931 158.688 238.054 158.838C238.177 158.984 238.387 159.057 238.683 159.057C238.829 159.057 239.029 159.029 239.284 158.975V160C238.952 160.091 238.628 160.137 238.314 160.137C237.749 160.137 237.322 159.966 237.035 159.624C236.748 159.282 236.605 158.797 236.605 158.168V153.581H235.258V152.604H236.605V150.812H237.869ZM242.258 160H240.993V152.604H242.258V160ZM240.89 150.642C240.89 150.437 240.952 150.263 241.075 150.122C241.203 149.981 241.389 149.91 241.636 149.91C241.882 149.91 242.068 149.981 242.196 150.122C242.324 150.263 242.387 150.437 242.387 150.642C242.387 150.847 242.324 151.018 242.196 151.154C242.068 151.291 241.882 151.359 241.636 151.359C241.389 151.359 241.203 151.291 241.075 151.154C240.952 151.018 240.89 150.847 240.89 150.642ZM244.103 156.233C244.103 155.509 244.244 154.857 244.527 154.278C244.814 153.7 245.21 153.253 245.716 152.938C246.227 152.624 246.808 152.467 247.459 152.467C248.467 152.467 249.28 152.815 249.9 153.513C250.524 154.21 250.836 155.137 250.836 156.295V156.384C250.836 157.104 250.697 157.751 250.419 158.325C250.146 158.895 249.752 159.339 249.237 159.658C248.726 159.977 248.138 160.137 247.473 160.137C246.47 160.137 245.657 159.788 245.033 159.091C244.413 158.394 244.103 157.471 244.103 156.322V156.233ZM245.374 156.384C245.374 157.204 245.564 157.863 245.942 158.359C246.325 158.856 246.835 159.104 247.473 159.104C248.116 159.104 248.626 158.854 249.004 158.353C249.383 157.847 249.572 157.14 249.572 156.233C249.572 155.422 249.378 154.766 248.991 154.265C248.608 153.759 248.097 153.506 247.459 153.506C246.835 153.506 246.331 153.754 245.949 154.251C245.566 154.748 245.374 155.459 245.374 156.384ZM253.769 152.604L253.81 153.533C254.375 152.822 255.113 152.467 256.024 152.467C257.588 152.467 258.376 153.349 258.39 155.112V160H257.125V155.105C257.12 154.572 256.997 154.178 256.756 153.923C256.519 153.668 256.147 153.54 255.642 153.54C255.231 153.54 254.871 153.649 254.562 153.868C254.252 154.087 254.01 154.374 253.837 154.729V160H252.572V152.604H253.769ZM264.754 158.038C264.754 157.696 264.624 157.432 264.364 157.245C264.109 157.054 263.66 156.89 263.017 156.753C262.379 156.616 261.871 156.452 261.493 156.261C261.119 156.069 260.841 155.841 260.659 155.577C260.481 155.313 260.392 154.998 260.392 154.634C260.392 154.028 260.647 153.515 261.158 153.096C261.673 152.676 262.329 152.467 263.127 152.467C263.965 152.467 264.644 152.683 265.164 153.116C265.688 153.549 265.95 154.103 265.95 154.777H264.678C264.678 154.431 264.53 154.132 264.234 153.882C263.942 153.631 263.573 153.506 263.127 153.506C262.666 153.506 262.306 153.606 262.046 153.807C261.787 154.007 261.657 154.269 261.657 154.593C261.657 154.898 261.778 155.128 262.019 155.283C262.261 155.438 262.696 155.586 263.325 155.728C263.958 155.869 264.471 156.037 264.863 156.233C265.255 156.429 265.544 156.666 265.731 156.944C265.922 157.218 266.018 157.553 266.018 157.949C266.018 158.61 265.754 159.141 265.225 159.542C264.697 159.938 264.011 160.137 263.168 160.137C262.575 160.137 262.051 160.032 261.595 159.822C261.14 159.613 260.782 159.321 260.522 158.947C260.267 158.569 260.139 158.161 260.139 157.724H261.404C261.427 158.147 261.595 158.485 261.91 158.735C262.229 158.981 262.648 159.104 263.168 159.104C263.646 159.104 264.029 159.009 264.316 158.817C264.608 158.621 264.754 158.362 264.754 158.038Z" fill="black" fill-opacity="0.54"/>
<path d="M309.155 206V196.047H312.409C313.489 196.047 314.3 196.27 314.843 196.717C315.39 197.163 315.663 197.824 315.663 198.699C315.663 199.164 315.531 199.576 315.267 199.937C315.002 200.292 314.642 200.568 314.187 200.764C314.724 200.914 315.148 201.201 315.458 201.625C315.772 202.044 315.93 202.546 315.93 203.129C315.93 204.022 315.64 204.724 315.062 205.234C314.483 205.745 313.665 206 312.607 206H309.155ZM310.468 201.345V204.927H312.635C313.245 204.927 313.726 204.77 314.077 204.455C314.433 204.136 314.61 203.699 314.61 203.143C314.61 201.944 313.959 201.345 312.655 201.345H310.468ZM310.468 200.292H312.45C313.024 200.292 313.482 200.148 313.824 199.861C314.171 199.574 314.344 199.185 314.344 198.692C314.344 198.146 314.184 197.749 313.865 197.503C313.546 197.252 313.061 197.127 312.409 197.127H310.468V200.292ZM320.204 206H318.939V195.5H320.204V206ZM323.049 202.233C323.049 201.509 323.19 200.857 323.473 200.278C323.76 199.7 324.156 199.253 324.662 198.938C325.173 198.624 325.754 198.467 326.405 198.467C327.413 198.467 328.226 198.815 328.846 199.513C329.47 200.21 329.782 201.137 329.782 202.295V202.384C329.782 203.104 329.643 203.751 329.365 204.325C329.092 204.895 328.698 205.339 328.183 205.658C327.672 205.977 327.085 206.137 326.419 206.137C325.417 206.137 324.603 205.788 323.979 205.091C323.359 204.394 323.049 203.471 323.049 202.322V202.233ZM324.321 202.384C324.321 203.204 324.51 203.863 324.888 204.359C325.271 204.856 325.781 205.104 326.419 205.104C327.062 205.104 327.572 204.854 327.95 204.353C328.329 203.847 328.518 203.14 328.518 202.233C328.518 201.422 328.324 200.766 327.937 200.265C327.554 199.759 327.043 199.506 326.405 199.506C325.781 199.506 325.278 199.754 324.895 200.251C324.512 200.748 324.321 201.459 324.321 202.384ZM335.485 205.104C335.936 205.104 336.331 204.968 336.668 204.694C337.005 204.421 337.192 204.079 337.228 203.669H338.425C338.402 204.093 338.256 204.496 337.987 204.879C337.718 205.262 337.358 205.567 336.907 205.795C336.46 206.023 335.986 206.137 335.485 206.137C334.478 206.137 333.676 205.802 333.079 205.132C332.486 204.457 332.19 203.537 332.19 202.37V202.158C332.19 201.438 332.322 200.798 332.587 200.237C332.851 199.677 333.229 199.242 333.721 198.932C334.218 198.622 334.804 198.467 335.478 198.467C336.308 198.467 336.996 198.715 337.543 199.212C338.094 199.709 338.388 200.354 338.425 201.146H337.228C337.192 200.668 337.01 200.276 336.681 199.971C336.358 199.661 335.957 199.506 335.478 199.506C334.836 199.506 334.337 199.738 333.981 200.203C333.63 200.663 333.455 201.331 333.455 202.206V202.445C333.455 203.298 333.63 203.954 333.981 204.414C334.332 204.874 334.833 205.104 335.485 205.104ZM343.061 202.575L342.268 203.402V206H341.003V195.5H342.268V201.851L342.945 201.037L345.248 198.604H346.787L343.909 201.693L347.121 206H345.638L343.061 202.575Z" fill="black" fill-opacity="0.54"/>
<path d="M417.651 203.402H413.481L412.545 206H411.191L414.992 196.047H416.141L419.948 206H418.602L417.651 203.402ZM413.878 202.322H417.262L415.566 197.667L413.878 202.322ZM423.614 206H422.349V195.5H423.614V206ZM428.168 206H426.904V195.5H428.168V206ZM431.013 202.233C431.013 201.509 431.155 200.857 431.437 200.278C431.724 199.7 432.121 199.253 432.627 198.938C433.137 198.624 433.718 198.467 434.37 198.467C435.377 198.467 436.191 198.815 436.81 199.513C437.435 200.21 437.747 201.137 437.747 202.295V202.384C437.747 203.104 437.608 203.751 437.33 204.325C437.056 204.895 436.662 205.339 436.147 205.658C435.637 205.977 435.049 206.137 434.384 206.137C433.381 206.137 432.568 205.788 431.943 205.091C431.323 204.394 431.013 203.471 431.013 202.322V202.233ZM432.285 202.384C432.285 203.204 432.474 203.863 432.852 204.359C433.235 204.856 433.746 205.104 434.384 205.104C435.026 205.104 435.537 204.854 435.915 204.353C436.293 203.847 436.482 203.14 436.482 202.233C436.482 201.422 436.289 200.766 435.901 200.265C435.518 199.759 435.008 199.506 434.37 199.506C433.746 199.506 433.242 199.754 432.859 200.251C432.476 200.748 432.285 201.459 432.285 202.384ZM447.032 204.257L448.454 198.604H449.718L447.565 206H446.539L444.742 200.395L442.992 206H441.966L439.82 198.604H441.078L442.534 204.141L444.256 198.604H445.275L447.032 204.257Z" fill="black" fill-opacity="0.54"/>
<path d="M126 162.167C127.008 162.167 127.833 161.342 127.833 160.333H124.167C124.167 161.342 124.983 162.167 126 162.167ZM131.5 156.667V152.083C131.5 149.269 129.997 146.913 127.375 146.29V145.667C127.375 144.906 126.761 144.292 126 144.292C125.239 144.292 124.625 144.906 124.625 145.667V146.29C121.994 146.913 120.5 149.26 120.5 152.083V156.667L118.667 158.5V159.417H133.333V158.5L131.5 156.667Z" fill="black" fill-opacity="0.54"/>
<g clip-path="url(#clip0)">
<path d="M477.084 102.739L476.261 101.917L473 105.178L469.739 101.917L468.917 102.739L472.178 106L468.917 109.261L469.739 110.083L473 106.823L476.261 110.083L477.084 109.261L473.823 106L477.084 102.739Z" fill="black" fill-opacity="0.4"/>
</g>
<path d="M369.75 25.6564L368.844 24.75L365.25 28.3436L361.656 24.75L360.75 25.6564L364.344 29.25L360.75 32.8436L361.656 33.75L365.25 30.1564L368.844 33.75L369.75 32.8436L366.156 29.25L369.75 25.6564Z" fill="black" fill-opacity="0.4"/>
<path d="M145.7 33.3472C145.7 34.5314 145.5 35.5662 145.102 36.4517C144.704 37.3315 144.139 38.0039 143.409 38.4688C142.678 38.9336 141.826 39.166 140.852 39.166C139.9 39.166 139.056 38.9336 138.32 38.4688C137.584 37.9984 137.012 37.3315 136.602 36.4683C136.198 35.5994 135.991 34.5951 135.979 33.4551V32.5835C135.979 31.4214 136.181 30.3949 136.585 29.5039C136.989 28.613 137.559 27.9323 138.295 27.4619C139.037 26.986 139.884 26.748 140.835 26.748C141.804 26.748 142.656 26.9832 143.392 27.4536C144.134 27.9185 144.704 28.5964 145.102 29.4873C145.5 30.3727 145.7 31.4048 145.7 32.5835V33.3472ZM144.114 32.5669C144.114 31.1336 143.826 30.0352 143.251 29.2715C142.675 28.5023 141.87 28.1177 140.835 28.1177C139.828 28.1177 139.034 28.5023 138.453 29.2715C137.878 30.0352 137.582 31.0977 137.565 32.459V33.3472C137.565 34.7362 137.855 35.8291 138.437 36.626C139.023 37.4173 139.828 37.813 140.852 37.813C141.881 37.813 142.678 37.4395 143.243 36.6924C143.807 35.9398 144.098 34.8634 144.114 33.4634V32.5669ZM155.952 36.8833L157.678 30.0186H159.214L156.599 39H155.354L153.171 32.1934L151.046 39H149.801L147.194 30.0186H148.722L150.49 36.7422L152.582 30.0186H153.818L155.952 36.8833ZM162.385 30.0186L162.435 31.1475C163.121 30.2842 164.018 29.8525 165.125 29.8525C167.023 29.8525 167.98 30.9233 167.997 33.0649V39H166.461V33.0566C166.456 32.4092 166.306 31.9305 166.013 31.6206C165.725 31.3107 165.274 31.1558 164.66 31.1558C164.162 31.1558 163.725 31.2886 163.348 31.5542C162.972 31.8198 162.679 32.1685 162.468 32.6001V39H160.933V30.0186H162.385ZM174.19 39.166C172.972 39.166 171.982 38.7676 171.218 37.9707C170.454 37.1683 170.073 36.0975 170.073 34.7583V34.4761C170.073 33.5851 170.241 32.791 170.579 32.0938C170.922 31.391 171.398 30.8431 172.007 30.4502C172.621 30.0518 173.285 29.8525 173.999 29.8525C175.166 29.8525 176.074 30.2371 176.721 31.0063C177.369 31.7756 177.693 32.8768 177.693 34.3101V34.9492H171.608C171.63 35.8346 171.888 36.5513 172.38 37.0991C172.878 37.6414 173.509 37.9126 174.273 37.9126C174.815 37.9126 175.274 37.8019 175.651 37.5806C176.027 37.3592 176.356 37.0659 176.638 36.7007L177.576 37.4312C176.824 38.5877 175.695 39.166 174.19 39.166ZM173.999 31.1143C173.379 31.1143 172.859 31.3411 172.438 31.7949C172.018 32.2432 171.758 32.874 171.658 33.6875H176.157V33.5713C176.113 32.791 175.902 32.1878 175.526 31.7617C175.15 31.3301 174.641 31.1143 173.999 31.1143ZM179.254 34.4346C179.254 33.0566 179.58 31.9499 180.233 31.1143C180.886 30.2731 181.741 29.8525 182.798 29.8525C183.85 29.8525 184.683 30.2122 185.297 30.9316V26.25H186.832V39H185.421L185.347 38.0371C184.732 38.7897 183.877 39.166 182.782 39.166C181.741 39.166 180.892 38.7399 180.233 37.8877C179.58 37.0355 179.254 35.9232 179.254 34.5508V34.4346ZM180.789 34.6089C180.789 35.6271 181 36.424 181.42 36.9995C181.841 37.575 182.422 37.8628 183.163 37.8628C184.137 37.8628 184.849 37.4256 185.297 36.5513V32.4258C184.837 31.5791 184.132 31.1558 183.18 31.1558C182.427 31.1558 181.841 31.4463 181.42 32.0273C181 32.6084 180.789 33.4689 180.789 34.6089ZM200.654 35.8457H195.591L194.454 39H192.81L197.425 26.9141H198.82L203.443 39H201.808L200.654 35.8457ZM196.072 34.5342H200.181L198.123 28.8813L196.072 34.5342ZM210.425 38.1118C209.827 38.8146 208.95 39.166 207.794 39.166C206.836 39.166 206.106 38.8893 205.602 38.3359C205.104 37.777 204.852 36.9525 204.847 35.8623V30.0186H206.383V35.8208C206.383 37.1821 206.936 37.8628 208.043 37.8628C209.216 37.8628 209.996 37.4256 210.383 36.5513V30.0186H211.919V39H210.458L210.425 38.1118ZM214.036 34.4346C214.036 33.0566 214.363 31.9499 215.016 31.1143C215.669 30.2731 216.524 29.8525 217.581 29.8525C218.632 29.8525 219.465 30.2122 220.079 30.9316V26.25H221.615V39H220.204L220.129 38.0371C219.515 38.7897 218.66 39.166 217.564 39.166C216.524 39.166 215.674 38.7399 215.016 37.8877C214.363 37.0355 214.036 35.9232 214.036 34.5508V34.4346ZM215.572 34.6089C215.572 35.6271 215.782 36.424 216.203 36.9995C216.623 37.575 217.205 37.8628 217.946 37.8628C218.92 37.8628 219.631 37.4256 220.079 36.5513V32.4258C219.62 31.5791 218.915 31.1558 217.963 31.1558C217.21 31.1558 216.623 31.4463 216.203 32.0273C215.782 32.6084 215.572 33.4689 215.572 34.6089ZM225.824 39H224.288V30.0186H225.824V39ZM224.164 27.6362C224.164 27.3872 224.239 27.1769 224.388 27.0054C224.543 26.8338 224.77 26.748 225.069 26.748C225.368 26.748 225.594 26.8338 225.749 27.0054C225.904 27.1769 225.982 27.3872 225.982 27.6362C225.982 27.8853 225.904 28.0928 225.749 28.2588C225.594 28.4248 225.368 28.5078 225.069 28.5078C224.77 28.5078 224.543 28.4248 224.388 28.2588C224.239 28.0928 224.164 27.8853 224.164 27.6362ZM232.167 39.166C230.949 39.166 229.958 38.7676 229.195 37.9707C228.431 37.1683 228.049 36.0975 228.049 34.7583V34.4761C228.049 33.5851 228.218 32.791 228.556 32.0938C228.899 31.391 229.375 30.8431 229.983 30.4502C230.598 30.0518 231.262 29.8525 231.976 29.8525C233.143 29.8525 234.051 30.2371 234.698 31.0063C235.346 31.7756 235.669 32.8768 235.669 34.3101V34.9492H229.585C229.607 35.8346 229.864 36.5513 230.357 37.0991C230.855 37.6414 231.486 37.9126 232.25 37.9126C232.792 37.9126 233.251 37.8019 233.627 37.5806C234.004 37.3592 234.333 37.0659 234.615 36.7007L235.553 37.4312C234.801 38.5877 233.672 39.166 232.167 39.166ZM231.976 31.1143C231.356 31.1143 230.836 31.3411 230.415 31.7949C229.994 32.2432 229.734 32.874 229.635 33.6875H234.134V33.5713C234.09 32.791 233.879 32.1878 233.503 31.7617C233.127 31.3301 232.618 31.1143 231.976 31.1143ZM239.057 30.0186L239.107 31.1475C239.793 30.2842 240.689 29.8525 241.796 29.8525C243.694 29.8525 244.651 30.9233 244.668 33.0649V39H243.132V33.0566C243.127 32.4092 242.977 31.9305 242.684 31.6206C242.396 31.3107 241.945 31.1558 241.331 31.1558C240.833 31.1558 240.396 31.2886 240.02 31.5542C239.643 31.8198 239.35 32.1685 239.14 32.6001V39H237.604V30.0186H239.057ZM250.737 37.9126C251.284 37.9126 251.763 37.7466 252.173 37.4146C252.582 37.0825 252.809 36.6675 252.853 36.1694H254.306C254.278 36.6841 254.101 37.1738 253.775 37.6387C253.448 38.1035 253.011 38.4743 252.463 38.751C251.921 39.0277 251.345 39.166 250.737 39.166C249.514 39.166 248.54 38.7593 247.815 37.9458C247.095 37.1268 246.736 36.009 246.736 34.5923V34.335C246.736 33.4606 246.896 32.6831 247.217 32.0024C247.538 31.3218 247.997 30.7933 248.595 30.417C249.198 30.0407 249.909 29.8525 250.728 29.8525C251.735 29.8525 252.571 30.1541 253.235 30.7573C253.905 31.3605 254.262 32.1436 254.306 33.1064H252.853C252.809 32.5254 252.588 32.0495 252.189 31.6787C251.796 31.3024 251.309 31.1143 250.728 31.1143C249.948 31.1143 249.342 31.3965 248.91 31.9609C248.484 32.5199 248.271 33.3306 248.271 34.3931V34.6836C248.271 35.7184 248.484 36.5153 248.91 37.0742C249.336 37.6331 249.945 37.9126 250.737 37.9126ZM259.909 39.166C258.692 39.166 257.701 38.7676 256.938 37.9707C256.174 37.1683 255.792 36.0975 255.792 34.7583V34.4761C255.792 33.5851 255.961 32.791 256.299 32.0938C256.642 31.391 257.118 30.8431 257.726 30.4502C258.341 30.0518 259.005 29.8525 259.719 29.8525C260.886 29.8525 261.794 30.2371 262.441 31.0063C263.089 31.7756 263.412 32.8768 263.412 34.3101V34.9492H257.328C257.35 35.8346 257.607 36.5513 258.1 37.0991C258.598 37.6414 259.229 37.9126 259.992 37.9126C260.535 37.9126 260.994 37.8019 261.37 37.5806C261.747 37.3592 262.076 37.0659 262.358 36.7007L263.296 37.4312C262.544 38.5877 261.415 39.166 259.909 39.166ZM259.719 31.1143C259.099 31.1143 258.579 31.3411 258.158 31.7949C257.737 32.2432 257.477 32.874 257.378 33.6875H261.877V33.5713C261.832 32.791 261.622 32.1878 261.246 31.7617C260.87 31.3301 260.36 31.1143 259.719 31.1143ZM272.013 26.9141L275.964 36.7754L279.916 26.9141H281.982V39H280.389V34.2935L280.538 29.2134L276.57 39H275.35L271.391 29.2383L271.548 34.2935V39H269.955V26.9141H272.013ZM290.251 39C290.162 38.8229 290.09 38.5075 290.035 38.0537C289.321 38.7952 288.469 39.166 287.478 39.166C286.593 39.166 285.865 38.917 285.295 38.4189C284.731 37.9154 284.448 37.279 284.448 36.5098C284.448 35.5745 284.803 34.8496 285.511 34.335C286.225 33.8148 287.226 33.5547 288.516 33.5547H290.01V32.8491C290.01 32.3123 289.849 31.8862 289.528 31.5708C289.207 31.2498 288.734 31.0894 288.109 31.0894C287.561 31.0894 287.102 31.2277 286.731 31.5044C286.36 31.7811 286.175 32.1159 286.175 32.5088H284.631C284.631 32.0605 284.789 31.6289 285.104 31.2139C285.425 30.7933 285.857 30.4613 286.399 30.2178C286.947 29.9743 287.547 29.8525 288.2 29.8525C289.235 29.8525 290.046 30.1126 290.632 30.6328C291.219 31.1475 291.523 31.8586 291.546 32.7661V36.8999C291.546 37.7244 291.651 38.3802 291.861 38.8672V39H290.251ZM287.702 37.8296C288.184 37.8296 288.64 37.7051 289.072 37.4561C289.504 37.207 289.816 36.8833 290.01 36.4849V34.6421H288.806C286.925 34.6421 285.984 35.1927 285.984 36.2939C285.984 36.7754 286.144 37.1517 286.465 37.4229C286.786 37.694 287.199 37.8296 287.702 37.8296ZM298.444 31.3965C298.212 31.3577 297.96 31.3384 297.689 31.3384C296.682 31.3384 295.998 31.7673 295.638 32.625V39H294.103V30.0186H295.597L295.622 31.0562C296.125 30.2537 296.839 29.8525 297.763 29.8525C298.062 29.8525 298.289 29.8913 298.444 29.9688V31.3965ZM302.52 34.8413L301.557 35.8457V39H300.022V26.25H301.557V33.9614L302.379 32.9736L305.177 30.0186H307.044L303.55 33.7705L307.451 39H305.65L302.52 34.8413ZM312.341 39.166C311.123 39.166 310.133 38.7676 309.369 37.9707C308.605 37.1683 308.224 36.0975 308.224 34.7583V34.4761C308.224 33.5851 308.392 32.791 308.73 32.0938C309.073 31.391 309.549 30.8431 310.158 30.4502C310.772 30.0518 311.436 29.8525 312.15 29.8525C313.317 29.8525 314.225 30.2371 314.872 31.0063C315.52 31.7756 315.844 32.8768 315.844 34.3101V34.9492H309.759C309.781 35.8346 310.039 36.5513 310.531 37.0991C311.029 37.6414 311.66 37.9126 312.424 37.9126C312.966 37.9126 313.425 37.8019 313.802 37.5806C314.178 37.3592 314.507 37.0659 314.789 36.7007L315.727 37.4312C314.975 38.5877 313.846 39.166 312.341 39.166ZM312.15 31.1143C311.53 31.1143 311.01 31.3411 310.589 31.7949C310.169 32.2432 309.909 32.874 309.809 33.6875H314.308V33.5713C314.264 32.791 314.053 32.1878 313.677 31.7617C313.301 31.3301 312.792 31.1143 312.15 31.1143ZM319.862 27.8438V30.0186H321.539V31.2056H319.862V36.7754C319.862 37.1351 319.937 37.4062 320.086 37.5889C320.235 37.766 320.49 37.8545 320.85 37.8545C321.027 37.8545 321.27 37.8213 321.58 37.7549V39C321.176 39.1107 320.783 39.166 320.401 39.166C319.715 39.166 319.198 38.9585 318.849 38.5435C318.5 38.1284 318.326 37.5391 318.326 36.7754V31.2056H316.691V30.0186H318.326V27.8438H319.862ZM325.158 39H323.623V30.0186H325.158V39ZM323.498 27.6362C323.498 27.3872 323.573 27.1769 323.722 27.0054C323.877 26.8338 324.104 26.748 324.403 26.748C324.702 26.748 324.929 26.8338 325.084 27.0054C325.239 27.1769 325.316 27.3872 325.316 27.6362C325.316 27.8853 325.239 28.0928 325.084 28.2588C324.929 28.4248 324.702 28.5078 324.403 28.5078C324.104 28.5078 323.877 28.4248 323.722 28.2588C323.573 28.0928 323.498 27.8853 323.498 27.6362ZM329.226 30.0186L329.276 31.1475C329.962 30.2842 330.859 29.8525 331.966 29.8525C333.864 29.8525 334.821 30.9233 334.838 33.0649V39H333.302V33.0566C333.296 32.4092 333.147 31.9305 332.854 31.6206C332.566 31.3107 332.115 31.1558 331.501 31.1558C331.003 31.1558 330.565 31.2886 330.189 31.5542C329.813 31.8198 329.52 32.1685 329.309 32.6001V39H327.774V30.0186H329.226ZM336.938 34.4346C336.938 33.0345 337.262 31.9222 337.909 31.0977C338.557 30.2676 339.415 29.8525 340.483 29.8525C341.578 29.8525 342.433 30.2399 343.048 31.0146L343.122 30.0186H344.525V38.7842C344.525 39.9463 344.179 40.8621 343.488 41.5317C342.801 42.2013 341.877 42.5361 340.715 42.5361C340.068 42.5361 339.434 42.3978 338.814 42.1211C338.194 41.8444 337.721 41.4653 337.395 40.9839L338.192 40.0625C338.85 40.876 339.655 41.2827 340.607 41.2827C341.354 41.2827 341.935 41.0724 342.35 40.6519C342.771 40.2313 342.981 39.6392 342.981 38.8755V38.1035C342.367 38.8118 341.529 39.166 340.466 39.166C339.415 39.166 338.562 38.7427 337.909 37.896C337.262 37.0493 336.938 35.8955 336.938 34.4346ZM338.482 34.6089C338.482 35.6216 338.69 36.4185 339.105 36.9995C339.52 37.575 340.101 37.8628 340.848 37.8628C341.816 37.8628 342.527 37.4229 342.981 36.543V32.4424C342.511 31.5846 341.805 31.1558 340.865 31.1558C340.117 31.1558 339.534 31.4463 339.113 32.0273C338.693 32.6084 338.482 33.4689 338.482 34.6089Z" fill="black" fill-opacity="0.54"/>
<path fill-rule="evenodd" clip-rule="evenodd" d="M123.253 31.3657L112.849 24.3139C112.586 24.1314 112.278 24.0229 111.958 24C111.522 24 111.002 24.2881 111.002 25.6532V29.031C111.002 29.0456 111.006 29.0599 111.013 29.0727C111.02 29.0855 111.03 29.0964 111.042 29.1045C111.076 29.1363 114.98 31.9041 116.186 32.681C116.49 32.8797 116.644 33.0784 116.632 33.2533C116.62 33.5096 116.276 33.6825 116.266 33.6884L111.046 36.9192C111.032 36.9271 111.021 36.9384 111.013 36.952C111.005 36.9656 111 36.981 111 36.9967V40.1421C111 41.7317 111.582 42.0615 112.068 42.0615C112.343 42.0492 112.609 41.9657 112.841 41.8191C112.921 41.7734 120.766 37.1656 123.257 35.3833C124.126 34.7634 124.56 34.0878 124.548 33.3785C124.524 32.2121 123.305 31.3915 123.253 31.3617V31.3657Z" fill="#08539F"/>
<path fill-rule="evenodd" clip-rule="evenodd" d="M122.577 38.7274C122.189 38.7289 121.81 38.8447 121.488 39.0602C121.165 39.2756 120.915 39.581 120.767 39.9378C120.62 40.2946 120.582 40.6868 120.659 41.0648C120.736 41.4428 120.924 41.7897 121.199 42.0617C121.475 42.3338 121.825 42.5186 122.206 42.5931C122.587 42.6675 122.982 42.6281 123.34 42.4799C123.699 42.3317 124.005 42.0813 124.22 41.7603C124.436 41.4393 124.55 41.0622 124.55 40.6766C124.548 40.1592 124.34 39.6637 123.971 39.2985C123.602 38.9332 123.102 38.7279 122.581 38.7274H122.577Z" fill="#F7D92A"/>
<defs>
<filter id="filter0_d" x="90.5" y="72.2435" width="415" height="182.256" filterUnits="userSpaceOnUse" color-interpolation-filters="sRGB">
<feFlood flood-opacity="0" result="BackgroundImageFix"/>
<feColorMatrix in="SourceAlpha" type="matrix" values="0 0 0 0 0 0 0 0 0 0 0 0 0 0 0 0 0 0 127 0"/>
<feOffset dy="4"/>
<feGaussianBlur stdDeviation="5"/>
<feColorMatrix type="matrix" values="0 0 0 0 0 0 0 0 0 0 0 0 0 0 0 0 0 0 0.25 0"/>
<feBlend mode="normal" in2="BackgroundImageFix" result="effect1_dropShadow"/>
<feBlend mode="normal" in="SourceGraphic" in2="effect1_dropShadow" result="shape"/>
</filter>
<clipPath id="clip0">
<rect x="466" y="100" width="14" height="14" fill="white"/>
</clipPath>
</defs>
</svg>
